<svg xmlns="http://www.w3.org/2000/svg" width="40" height="40" viewBox="0 0 46 46" fill="none">
  <path d="M17.2501 19.1667C19.3672 19.1667 21.0834 17.4504 21.0834 15.3333C21.0834 13.2162 19.3672 11.5 17.2501 11.5C15.133 11.5 13.4167 13.2162 13.4167 15.3333C13.4167 17.4504 15.133 19.1667 17.2501 19.1667Z" stroke="#2C3439" stroke-width="2" stroke-linecap="round" stroke-linejoin="round"/>
  <path d="M24.9166 3.8335H17.2499C7.66659 3.8335 3.83325 7.66683 3.83325 17.2502V28.7502C3.83325 38.3335 7.66659 42.1668 17.2499 42.1668H28.7499C38.3333 42.1668 42.1666 38.3335 42.1666 28.7502V19.1668" stroke="#2C3439" stroke-width="2" stroke-linecap="round" stroke-linejoin="round"/>
  <path d="M36.6851 4.96425L29.7276 11.9218C29.4593 12.1901 29.1909 12.7076 29.1526 13.0909L28.7693 15.7551C28.6351 16.7134 29.3059 17.3843 30.2643 17.2501L32.9284 16.8668C33.2926 16.8093 33.8293 16.5601 34.0976 16.2918L41.0551 9.33425C42.2626 8.12675 42.8184 6.74675 41.0551 4.98342C39.2726 3.18175 37.8926 3.75675 36.6851 4.96425Z" stroke="#2C3439" stroke-width="2" stroke-miterlimit="10" stroke-linecap="round" stroke-linejoin="round"/>
  <path d="M35.6882 5.96094C36.2824 8.06927 37.9307 9.7176 40.0391 10.3118" stroke="#2C3439" stroke-width="2" stroke-miterlimit="10" stroke-linecap="round" stroke-linejoin="round"/>
  <path d="M5.11743 36.3207L14.5666 29.9766C16.0808 28.9607 18.2658 29.0757 19.6266 30.2449L20.2591 30.8007C21.7541 32.0849 24.1691 32.0849 25.6641 30.8007L33.6374 23.9582C35.1324 22.6741 37.5474 22.6741 39.0424 23.9582L42.1666 26.6416" stroke="#2C3439" stroke-width="2" stroke-linecap="round" stroke-linejoin="round"/>
</svg>