<svg xmlns="http://www.w3.org/2000/svg" width="65" height="68" viewBox="0 0 65 68" fill="none">
  <path d="M0 31.9094C0 31.9094 20.1551 30.4516 27.322 22.2265C33.1456 15.5432 34.3729 0 34.3729 0C34.3729 0 36.819 15.5435 42.5254 22.2265C48.7279 29.4905 65 31.9094 65 31.9094C65 31.9094 49.2449 33.0402 42.5254 39.3916C35.3238 46.1987 34.4832 62.9867 34.3856 67.0861C34.3831 67.6733 34.3729 68 34.3729 68C34.3729 68 34.3716 67.6731 34.3856 67.0861C34.4027 63.017 34.0466 46.4399 27.322 39.3916C19.9756 31.6914 0 31.9094 0 31.9094Z" fill="#F7D070"/>
</svg>